<?xml version="1.0" encoding="utf-8"?>
<svg viewBox="0 0 24 24" xmlns="http://www.w3.org/2000/svg">
  <path d="M13.333,.369c-.822-.494-1.844-.493-2.665,0L1,6.141v11.719l9.667,5.771c.411,.247,.872,.37,1.333,.37s.921-.123,1.332-.369l9.668-5.772V6.141L13.333,.369Zm-2.151,.857c.505-.303,1.132-.304,1.638,0l8.704,5.197-9.524,5.691L2.476,6.425,11.182,1.227ZM2,17.291V7.306l9.5,5.675v9.928c-.109-.037-.218-.076-.319-.137L2,17.291Zm10.819,5.482c-.101,.061-.21,.1-.319,.137V12.982l9.5-5.675v9.984l-9.181,5.482Z"/>
  <text style="fill: rgb(51, 51, 51); font-family: Arial, sans-serif; font-size: 7.5px; font-weight: 700; white-space: pre;" x="6.244" y="8.894">รท 2</text>
</svg>